<mxfile host="app.diagrams.net" modified="2024-03-10T03:16:51.813Z" agent="Mozilla/5.0 (Windows NT 10.0; Win64; x64) AppleWebKit/537.36 (KHTML, like Gecko) Chrome/122.0.0.0 Safari/537.36" etag="Y0vXyl581xhDmEkt-jlP" version="24.0.4" type="device">
  <diagram name="Page-1" id="YgBqNYFpUbtydnjwGesW">
    <mxGraphModel dx="880" dy="-382" grid="1" gridSize="10" guides="1" tooltips="1" connect="1" arrows="1" fold="1" page="1" pageScale="1" pageWidth="1100" pageHeight="850" math="0" shadow="0">
      <root>
        <mxCell id="0" />
        <mxCell id="1" parent="0" />
        <mxCell id="RGGTpV-_Let40hKGZ3-E-6" value="AWS Cloud" style="sketch=0;outlineConnect=0;gradientColor=none;html=1;whiteSpace=wrap;fontSize=12;fontStyle=0;shape=mxgraph.aws4.group;grIcon=mxgraph.aws4.group_aws_cloud;strokeColor=default;fillColor=none;verticalAlign=top;align=left;spacingLeft=30;fontColor=#AAB7B8;dashed=0;" vertex="1" parent="1">
          <mxGeometry x="140" y="1140" width="620" height="550" as="geometry" />
        </mxCell>
        <mxCell id="RGGTpV-_Let40hKGZ3-E-7" value="VPC" style="sketch=0;outlineConnect=0;gradientColor=none;html=1;whiteSpace=wrap;fontSize=12;fontStyle=0;shape=mxgraph.aws4.group;grIcon=mxgraph.aws4.group_vpc;strokeColor=#000000;fillColor=none;verticalAlign=top;align=left;spacingLeft=30;fontColor=#B6BABF;dashed=0;" vertex="1" parent="1">
          <mxGeometry x="240" y="1290" width="400" height="350" as="geometry" />
        </mxCell>
        <mxCell id="RGGTpV-_Let40hKGZ3-E-8" value="Public subnet" style="points=[[0,0],[0.25,0],[0.5,0],[0.75,0],[1,0],[1,0.25],[1,0.5],[1,0.75],[1,1],[0.75,1],[0.5,1],[0.25,1],[0,1],[0,0.75],[0,0.5],[0,0.25]];outlineConnect=0;gradientColor=none;html=1;whiteSpace=wrap;fontSize=12;fontStyle=0;container=1;pointerEvents=0;collapsible=0;recursiveResize=0;shape=mxgraph.aws4.group;grIcon=mxgraph.aws4.group_security_group;grStroke=0;strokeColor=#7AA116;fillColor=#F2F6E8;verticalAlign=top;align=left;spacingLeft=30;fontColor=#248814;dashed=0;" vertex="1" parent="1">
          <mxGeometry x="350" y="1440" width="200" height="180" as="geometry" />
        </mxCell>
        <mxCell id="RGGTpV-_Let40hKGZ3-E-9" value="" style="outlineConnect=0;dashed=0;verticalLabelPosition=bottom;verticalAlign=top;align=center;html=1;shape=mxgraph.aws3.ec2;fillColor=#F58534;gradientColor=none;" vertex="1" parent="RGGTpV-_Let40hKGZ3-E-8">
          <mxGeometry x="40" y="50" width="110" height="96.5" as="geometry" />
        </mxCell>
        <mxCell id="RGGTpV-_Let40hKGZ3-E-16" value="" style="whiteSpace=wrap;html=1;aspect=fixed;fillColor=none;" vertex="1" parent="RGGTpV-_Let40hKGZ3-E-8">
          <mxGeometry x="30" y="40" width="130" height="130" as="geometry" />
        </mxCell>
        <mxCell id="RGGTpV-_Let40hKGZ3-E-27" value="EC2" style="text;strokeColor=none;fillColor=none;html=1;fontSize=24;fontStyle=1;verticalAlign=middle;align=center;" vertex="1" parent="RGGTpV-_Let40hKGZ3-E-8">
          <mxGeometry x="40" y="70" width="100" height="40" as="geometry" />
        </mxCell>
        <mxCell id="RGGTpV-_Let40hKGZ3-E-18" style="edgeStyle=orthogonalEdgeStyle;rounded=0;orthogonalLoop=1;jettySize=auto;html=1;exitX=0.5;exitY=1;exitDx=0;exitDy=0;exitPerimeter=0;entryX=0.5;entryY=0;entryDx=0;entryDy=0;" edge="1" parent="1" source="RGGTpV-_Let40hKGZ3-E-10" target="RGGTpV-_Let40hKGZ3-E-16">
          <mxGeometry relative="1" as="geometry" />
        </mxCell>
        <mxCell id="RGGTpV-_Let40hKGZ3-E-10" value="" style="outlineConnect=0;dashed=0;verticalLabelPosition=bottom;verticalAlign=top;align=center;html=1;shape=mxgraph.aws3.application_load_balancer;fillColor=#F58536;gradientColor=none;" vertex="1" parent="1">
          <mxGeometry x="405.5" y="1330" width="69" height="72" as="geometry" />
        </mxCell>
        <mxCell id="RGGTpV-_Let40hKGZ3-E-19" value="" style="outlineConnect=0;dashed=0;verticalLabelPosition=bottom;verticalAlign=top;align=center;html=1;shape=mxgraph.aws3.internet_gateway;fillColor=#F58534;gradientColor=none;" vertex="1" parent="1">
          <mxGeometry x="410" y="1260" width="60" height="50" as="geometry" />
        </mxCell>
        <mxCell id="RGGTpV-_Let40hKGZ3-E-23" style="edgeStyle=orthogonalEdgeStyle;rounded=0;orthogonalLoop=1;jettySize=auto;html=1;exitX=0.5;exitY=1;exitDx=0;exitDy=0;exitPerimeter=0;" edge="1" parent="1" source="RGGTpV-_Let40hKGZ3-E-20" target="RGGTpV-_Let40hKGZ3-E-19">
          <mxGeometry relative="1" as="geometry">
            <Array as="points">
              <mxPoint x="440" y="1230" />
            </Array>
          </mxGeometry>
        </mxCell>
        <mxCell id="RGGTpV-_Let40hKGZ3-E-20" value="" style="sketch=0;points=[[0,0,0],[0.25,0,0],[0.5,0,0],[0.75,0,0],[1,0,0],[0,1,0],[0.25,1,0],[0.5,1,0],[0.75,1,0],[1,1,0],[0,0.25,0],[0,0.5,0],[0,0.75,0],[1,0.25,0],[1,0.5,0],[1,0.75,0]];outlineConnect=0;fontColor=#232F3E;fillColor=#8C4FFF;strokeColor=#ffffff;dashed=0;verticalLabelPosition=bottom;verticalAlign=top;align=center;html=1;fontSize=12;fontStyle=0;aspect=fixed;shape=mxgraph.aws4.resourceIcon;resIcon=mxgraph.aws4.route_53;" vertex="1" parent="1">
          <mxGeometry x="410" y="1160" width="70" height="70" as="geometry" />
        </mxCell>
        <mxCell id="RGGTpV-_Let40hKGZ3-E-21" value="" style="endArrow=none;html=1;rounded=0;exitX=0.5;exitY=1;exitDx=0;exitDy=0;exitPerimeter=0;entryX=0.5;entryY=0;entryDx=0;entryDy=0;entryPerimeter=0;" edge="1" parent="1" source="RGGTpV-_Let40hKGZ3-E-19" target="RGGTpV-_Let40hKGZ3-E-10">
          <mxGeometry width="50" height="50" relative="1" as="geometry">
            <mxPoint x="400" y="1400" as="sourcePoint" />
            <mxPoint x="450" y="1350" as="targetPoint" />
          </mxGeometry>
        </mxCell>
        <mxCell id="RGGTpV-_Let40hKGZ3-E-24" value="" style="outlineConnect=0;dashed=0;verticalLabelPosition=bottom;verticalAlign=top;align=center;html=1;shape=mxgraph.aws3.users;fillColor=#D2D3D3;gradientColor=none;" vertex="1" parent="1">
          <mxGeometry x="404" y="980" width="66" height="63" as="geometry" />
        </mxCell>
        <mxCell id="RGGTpV-_Let40hKGZ3-E-25" value="" style="endArrow=none;html=1;rounded=0;exitX=0.5;exitY=1;exitDx=0;exitDy=0;exitPerimeter=0;entryX=0.386;entryY=0.014;entryDx=0;entryDy=0;entryPerimeter=0;" edge="1" parent="1" source="RGGTpV-_Let40hKGZ3-E-24" target="RGGTpV-_Let40hKGZ3-E-20">
          <mxGeometry width="50" height="50" relative="1" as="geometry">
            <mxPoint x="400" y="1160" as="sourcePoint" />
            <mxPoint x="450" y="1110" as="targetPoint" />
          </mxGeometry>
        </mxCell>
        <mxCell id="RGGTpV-_Let40hKGZ3-E-28" value="Target Group" style="text;html=1;align=center;verticalAlign=middle;whiteSpace=wrap;rounded=0;" vertex="1" parent="1">
          <mxGeometry x="440" y="1450" width="60" height="30" as="geometry" />
        </mxCell>
        <mxCell id="RGGTpV-_Let40hKGZ3-E-30" value="&lt;span style=&quot;font-size: 20px;&quot;&gt;LB&lt;/span&gt;" style="text;strokeColor=none;fillColor=none;html=1;fontSize=24;fontStyle=1;verticalAlign=middle;align=center;" vertex="1" parent="1">
          <mxGeometry x="340" y="1346" width="100" height="40" as="geometry" />
        </mxCell>
        <mxCell id="RGGTpV-_Let40hKGZ3-E-31" value="&lt;font style=&quot;font-size: 18px;&quot;&gt;IGW&lt;/font&gt;" style="text;strokeColor=none;fillColor=none;html=1;fontSize=24;fontStyle=1;verticalAlign=middle;align=center;" vertex="1" parent="1">
          <mxGeometry x="340" y="1255" width="100" height="40" as="geometry" />
        </mxCell>
        <mxCell id="RGGTpV-_Let40hKGZ3-E-32" value="users" style="text;strokeColor=none;fillColor=none;html=1;fontSize=24;fontStyle=1;verticalAlign=middle;align=center;" vertex="1" parent="1">
          <mxGeometry x="405.5" y="940" width="100" height="40" as="geometry" />
        </mxCell>
        <mxCell id="RGGTpV-_Let40hKGZ3-E-33" value="&lt;b&gt;gmr.cloudwithjagadeesh.com&lt;/b&gt;" style="text;html=1;align=center;verticalAlign=middle;whiteSpace=wrap;rounded=0;" vertex="1" parent="1">
          <mxGeometry x="480" y="1180" width="175.5" height="30" as="geometry" />
        </mxCell>
        <mxCell id="RGGTpV-_Let40hKGZ3-E-34" value="www.gmr.cloudwithjagadeesh" style="text;html=1;align=center;verticalAlign=middle;whiteSpace=wrap;rounded=0;fontStyle=1" vertex="1" parent="1">
          <mxGeometry x="537.75" y="996.5" width="60" height="30" as="geometry" />
        </mxCell>
      </root>
    </mxGraphModel>
  </diagram>
</mxfile>
